# xmcd
#
# Track frame offsets:
#	150
#	19983
#	37062
#	53270
#	69037
#	89209
#	107347
#	121675
#	135453
#	150192
#	165433
#	181137
#	201442
#	217224
#
# Disc length: 3185 seconds
#
# Revision: 1
# Processed by: cddbd v1.5.1PL0 Copyright (c) Steve Scherf et al.
# Submitted via: audiograbber 1.83.01
#
DISCID=b10c6f0e
DTITLE=Joan Armatrading - The Very Best Of
DYEAR=1900
DGENRE=Soul
TTITLE0=Love And Affection (Remix)
TTITLE1=Down To Zero
TTITLE2=Drop The Pilot
TTITLE3=Show Some Emotion
TTITLE4=The Shouting Stage
TTITLE5=Willow
TTITLE6=Rosie
TTITLE7=I'm Lucky
TTITLE8=Me, Myself, I
TTITLE9=(I Love It When You) Call Me Names
TTITLE10=Bottom To The Top
TTITLE11=More Than One Kind Of Love
TTITLE12=The Weakness In Me
TTITLE13=All The Way From America
EXTD=
EXTT0=
EXTT1=
EXTT2=
EXTT3=
EXTT4=
EXTT5=
EXTT6=
EXTT7=
EXTT8=
EXTT9=
EXTT10=
EXTT11=
EXTT12=
EXTT13=
PLAYORDER=
